<svg width="1304" height="958" viewBox="0 0 1304 958" fill="none" xmlns="http://www.w3.org/2000/svg">
<path d="M0 119C0 53.2782 53.2781 0 119 0H1185C1250.72 0 1304 53.2781 1304 119V745.245C1304 798.366 1268.83 845 1217.42 858.368C1080.19 894.051 811.94 958 652 958C492.06 958 223.814 894.051 86.5848 858.368C35.1736 845 0 798.366 0 745.245V119Z" fill="#C4B100"/>
<path d="M0 119C0 53.2782 53.2781 0 119 0H1185C1250.72 0 1304 53.2781 1304 119V656.361C1304 710.699 1267.24 758.076 1214.32 770.386C1076.18 802.513 810.745 859 652 859C493.255 859 227.818 802.513 89.6843 770.386C36.7591 758.076 0 710.699 0 656.361V119Z" fill="#FFE600"/>
</svg>
